<?xml version="1.0" standalone="no"?>
<!DOCTYPE svg PUBLIC "-//W3C//DTD SVG 20010904//EN"
 "http://www.w3.org/TR/2001/REC-SVG-20010904/DTD/svg10.dtd">
<svg version="1.0" xmlns="http://www.w3.org/2000/svg"
 width="1086.000000pt" height="1086.000000pt" viewBox="0 0 1086.000000 1086.000000"
 preserveAspectRatio="xMidYMid meet">
<metadata>
Created by potrace 1.11, written by Peter Selinger 2001-2013
</metadata>
<g transform="translate(0.000000,1086.000000) scale(0.100000,-0.100000)"
fill="#000000" stroke="none">
<path d="M5370 8841 c-14 -4 -45 -18 -70 -31 -25 -12 -60 -30 -77 -38 -18 -9
-33 -20 -33 -24 0 -4 -9 -8 -20 -8 -11 0 -20 -4 -20 -9 0 -9 -57 -36 -62 -30
-2 2 -14 -6 -28 -18 -22 -21 -29 -24 -46 -22 -4 0 -10 -4 -13 -9 -3 -5 -35
-24 -71 -43 -36 -18 -67 -36 -70 -39 -3 -3 -32 -20 -65 -37 -33 -16 -96 -50
-140 -74 -44 -23 -90 -48 -102 -53 -13 -6 -23 -14 -23 -18 0 -5 -5 -8 -10 -8
-6 0 -73 -34 -149 -76 l-140 -75 26 -47 c14 -26 35 -63 47 -82 23 -39 19 -31
136 -236 46 -82 88 -150 92 -152 4 -2 8 -8 8 -13 0 -11 117 -217 136 -239 7
-8 16 -27 19 -42 4 -16 10 -28 14 -28 4 0 14 -12 22 -27 18 -36 60 -102 79
-126 31 -38 101 -70 155 -72 29 -1 57 -5 64 -9 6 -4 11 -4 11 1 0 4 27 8 60 8
33 0 60 -4 60 -8 0 -5 5 -5 11 -1 16 9 109 11 109 1 0 -5 5 -5 12 -1 14 9 103
8 118 -1 5 -3 10 -2 10 2 0 12 123 10 132 -2 5 -7 8 -7 8 0 0 6 18 10 40 10
22 0 40 -4 40 -8 0 -5 5 -5 11 -2 15 10 229 11 229 2 0 -5 5 -5 12 -1 7 4 24
9 39 11 38 4 101 38 128 69 13 15 39 54 58 88 20 33 42 71 49 83 8 13 14 26
13 29 0 4 3 10 8 13 5 3 16 20 25 36 28 57 53 100 59 105 4 3 16 23 28 45 11
22 37 67 57 100 19 33 38 68 41 78 3 9 9 17 13 17 5 0 13 12 19 28 12 29 23
49 58 98 12 17 19 34 16 38 -4 3 0 6 7 6 7 0 11 3 7 6 -3 4 9 31 28 60 19 30
35 58 35 63 0 5 7 14 15 21 8 7 12 16 9 21 -3 5 -1 9 4 9 5 0 14 10 19 23 9
19 8 25 -6 34 -20 12 -163 90 -216 117 -22 12 -42 23 -45 26 -3 3 -25 15 -50
28 -25 12 -81 43 -125 68 -44 25 -92 50 -107 55 -16 6 -28 15 -28 21 0 5 -4 7
-9 3 -5 -3 -12 -1 -15 4 -4 5 -32 23 -64 39 -109 56 -147 77 -154 87 -4 6 -8
6 -8 2 0 -5 -12 1 -26 12 -15 12 -33 21 -40 21 -7 0 -19 6 -26 13 -7 6 -26 19
-43 27 -16 8 -42 23 -57 33 -16 10 -28 15 -28 12 0 -3 -14 3 -30 15 -33 24
-135 36 -180 21z"/>
<path d="M3805 7995 c-33 -18 -66 -39 -72 -45 -7 -6 -13 -8 -13 -5 0 3 -21 -6
-47 -21 -27 -15 -86 -48 -133 -72 -47 -25 -86 -49 -88 -54 -2 -4 -8 -8 -14 -8
-5 0 -38 -16 -74 -36 -35 -19 -67 -35 -71 -35 -4 0 -15 -6 -23 -14 -8 -7 -49
-30 -90 -51 -41 -21 -77 -41 -80 -44 -5 -5 -19 -13 -185 -100 -55 -29 -101
-57 -103 -62 -2 -4 -9 -8 -15 -8 -16 -1 -57 -36 -57 -49 0 -6 -3 -11 -8 -11
-4 0 -16 -17 -27 -37 -17 -32 -20 -55 -19 -177 1 -121 11 -351 14 -351 2 0 8
-60 25 -235 5 -48 13 -105 15 -105 1 0 3 -16 5 -35 6 -56 22 -161 30 -200 3
-14 7 -38 10 -55 3 -16 7 -41 9 -55 3 -14 12 -58 20 -98 9 -40 16 -74 16 -75
0 -1 227 -2 504 -1 422 0 507 3 522 15 9 8 19 13 21 11 9 -7 63 31 85 60 33
43 118 187 118 199 0 5 5 9 10 9 6 0 10 5 10 11 0 7 23 49 50 95 28 46 50 88
50 94 0 5 5 10 10 10 6 0 10 4 10 10 0 5 27 55 60 111 33 55 60 103 60 106 0
3 12 24 28 47 15 22 34 55 42 71 8 17 18 32 21 35 4 3 9 14 11 25 1 11 7 23
11 26 5 3 8 31 8 61 0 55 -21 123 -51 168 -10 14 -27 42 -39 63 -11 20 -30 52
-40 71 -11 18 -25 44 -33 57 -7 13 -15 26 -18 29 -3 3 -13 21 -23 40 -31 59
-52 95 -57 100 -3 3 -13 20 -22 38 -10 17 -26 47 -35 64 -10 18 -21 35 -24 38
-3 3 -19 30 -36 60 -36 66 -60 107 -102 178 -17 29 -31 57 -31 62 0 6 -5 10
-12 10 -6 0 -9 3 -6 6 4 3 -5 22 -18 41 -13 20 -24 40 -24 44 0 16 -24 9 -85
-26z"/>
<path d="M6945 7958 c-22 -40 -42 -77 -44 -83 -2 -5 -7 -12 -10 -15 -3 -3 -17
-25 -30 -50 -14 -25 -27 -47 -31 -50 -7 -6 -56 -95 -72 -132 -7 -16 -16 -28
-20 -28 -4 0 -8 -4 -8 -10 0 -5 -18 -39 -40 -75 -22 -36 -40 -69 -40 -74 0 -5
-6 -16 -12 -23 -13 -13 -29 -40 -65 -108 -10 -19 -21 -37 -24 -40 -6 -5 -19
-28 -85 -147 -15 -27 -30 -52 -34 -58 -12 -15 -23 -76 -22 -110 2 -41 23 -115
32 -115 4 0 15 -17 24 -37 9 -21 29 -59 45 -85 16 -25 40 -66 54 -90 13 -23
66 -114 116 -202 50 -87 91 -162 91 -167 0 -5 3 -9 8 -9 4 0 20 -26 37 -58 59
-113 107 -177 155 -203 27 -14 26 -14 80 -26 50 -12 978 -9 988 2 5 6 18 64
31 130 12 66 24 131 27 145 4 22 8 52 19 130 2 14 6 41 9 60 10 63 17 122 32
260 3 30 7 69 9 85 9 84 19 275 19 395 1 173 -7 191 -131 290 -7 6 -18 10 -26
10 -7 0 -17 4 -22 9 -10 9 -97 58 -160 89 -16 9 -33 19 -36 24 -3 5 -12 10
-20 11 -8 2 -21 7 -29 12 -16 10 -71 40 -140 76 -25 13 -48 29 -52 34 -4 6 -8
6 -8 1 0 -5 -8 -3 -17 5 -10 8 -36 24 -58 36 -22 11 -58 31 -80 43 -22 13 -78
43 -125 68 -47 25 -99 53 -117 63 -106 60 -162 89 -170 89 -5 0 -27 -33 -48
-72z"/>
<path d="M4920 6749 c-27 -9 -60 -23 -74 -33 -29 -19 -95 -104 -96 -123 0 -7
-4 -13 -10 -13 -5 0 -10 -5 -10 -10 0 -14 -92 -173 -105 -182 -5 -4 -6 -8 -1
-8 5 0 3 -7 -4 -15 -17 -21 -100 -166 -100 -176 0 -4 -4 -9 -9 -11 -5 -1 -11
-10 -13 -18 -2 -8 -5 -17 -8 -20 -7 -6 -42 -64 -75 -125 -61 -109 -79 -140
-85 -145 -14 -11 -28 -94 -24 -141 4 -37 22 -79 80 -181 42 -73 83 -144 92
-158 9 -14 17 -27 17 -30 0 -3 26 -48 56 -100 31 -52 71 -122 90 -155 18 -33
37 -61 41 -63 4 -2 8 -12 8 -23 0 -10 4 -19 8 -19 5 0 17 -17 29 -37 52 -96
67 -120 100 -150 64 -59 85 -62 535 -61 224 0 412 -3 418 -7 5 -3 10 -3 10 2
0 4 32 8 72 7 44 0 88 5 112 15 42 17 126 94 126 117 0 8 4 14 9 14 5 0 11 8
14 18 6 18 19 41 159 282 50 85 117 202 151 260 33 58 73 126 88 151 50 85 58
171 22 244 -28 58 -95 179 -102 185 -5 4 -18 26 -65 115 -6 11 -13 22 -16 25
-3 3 -11 16 -18 30 -7 14 -20 39 -31 55 -10 17 -28 48 -41 70 -12 22 -56 97
-96 167 -41 69 -74 129 -74 132 0 13 -57 70 -93 93 -22 13 -60 27 -85 29 -68
8 -817 8 -829 1 -6 -4 -13 -3 -17 0 -13 13 -107 8 -156 -8z"/>
<path d="M2935 5550 c-9 -15 142 -471 208 -630 6 -14 11 -27 12 -30 1 -3 7
-18 13 -33 7 -16 12 -30 12 -33 0 -2 16 -38 35 -80 19 -41 35 -77 35 -80 0
-16 172 -368 184 -376 6 -4 8 -8 4 -8 -4 0 8 -27 27 -59 19 -33 35 -62 35 -64
0 -3 20 -40 45 -81 25 -42 45 -81 45 -86 0 -6 5 -10 10 -10 6 0 10 -5 10 -10
0 -6 12 -29 27 -53 14 -23 36 -58 48 -77 24 -38 117 -184 137 -214 7 -10 19
-24 26 -32 6 -7 12 -16 12 -21 1 -11 40 -57 44 -52 3 4 88 150 138 239 32 54
112 193 125 215 7 11 19 34 28 50 8 17 20 37 25 45 20 31 160 272 160 276 0 2
14 27 32 56 43 69 57 128 46 189 -8 44 -92 210 -110 217 -4 2 -8 9 -8 14 0 6
-21 45 -46 87 -25 42 -50 84 -55 94 -21 40 -35 63 -45 77 -7 8 -25 40 -41 70
-16 30 -41 74 -56 97 -15 24 -27 47 -27 53 0 5 -4 10 -10 10 -5 0 -9 3 -8 8 1
4 -13 33 -32 65 -19 32 -40 67 -46 78 -6 10 -13 16 -16 13 -4 -3 -9 3 -12 13
-3 10 -30 29 -59 43 l-52 25 -448 1 c-246 0 -450 -3 -452 -6z"/>
<path d="M7030 5550 c-83 -22 -118 -59 -210 -220 -40 -69 -80 -138 -90 -155
-117 -201 -208 -360 -233 -405 -17 -30 -34 -57 -37 -60 -20 -16 -50 -115 -50
-163 0 -64 3 -71 189 -392 135 -233 158 -273 183 -316 7 -13 15 -26 18 -29 3
-3 12 -18 20 -35 8 -16 30 -55 49 -85 19 -30 34 -61 34 -67 0 -7 3 -13 6 -13
4 0 17 -20 31 -45 14 -25 27 -45 31 -45 9 0 196 287 286 440 84 143 156 273
209 380 59 118 140 285 143 292 4 13 32 81 52 125 10 23 19 48 19 56 0 8 7 20
15 27 8 7 13 16 10 20 -3 5 -1 11 5 15 6 4 8 11 5 16 -4 5 -2 9 3 9 5 0 9 6 9
13 0 6 19 58 41 115 22 56 38 102 35 102 -3 0 -1 6 4 13 6 6 18 39 28 72 10
33 23 66 28 73 5 7 7 15 4 19 -4 3 -2 14 4 25 6 11 12 27 14 36 2 9 15 53 29
97 14 43 23 82 20 85 -8 7 -875 7 -904 0z"/>
<path d="M4980 4352 c-19 -1 -42 -6 -50 -9 -8 -3 -19 -7 -25 -8 -30 -4 -66
-28 -95 -62 -32 -39 -180 -288 -180 -304 0 -5 -4 -9 -10 -9 -5 0 -10 -4 -10
-9 0 -12 -112 -205 -125 -213 -5 -4 -6 -8 -1 -8 5 0 4 -6 -2 -12 -5 -7 -51
-85 -102 -173 -51 -88 -103 -178 -117 -200 -13 -22 -26 -48 -30 -57 -3 -10 -9
-18 -14 -18 -5 0 -9 -6 -9 -14 0 -8 -7 -22 -16 -30 -8 -9 -13 -16 -9 -16 3 0
-1 -10 -9 -23 -14 -20 -13 -25 12 -53 15 -18 70 -83 123 -145 53 -63 120 -139
149 -169 183 -193 343 -350 479 -470 41 -36 84 -74 97 -85 12 -12 37 -32 54
-45 18 -14 42 -33 54 -44 71 -63 163 -130 199 -146 53 -24 147 -21 197 5 33
17 167 120 234 180 6 6 40 35 76 65 120 101 290 261 429 405 58 60 123 126
144 147 20 21 37 40 37 43 0 2 12 17 28 33 26 28 41 45 129 148 23 27 53 62
66 78 l25 28 -26 52 c-15 28 -29 53 -32 56 -11 10 -140 240 -140 250 0 5 -4
10 -9 10 -5 0 -14 15 -22 33 -7 17 -16 34 -19 37 -6 5 -49 77 -86 145 -12 22
-54 96 -94 165 -93 160 -99 170 -150 260 -24 41 -55 88 -69 103 -29 32 -89 66
-130 74 -27 5 -891 10 -951 5z"/>
</g>
</svg>
