<svg xmlns="http://www.w3.org/2000/svg" xmlns:xlink="http://www.w3.org/1999/xlink" viewBox="0 0 476.65042 543.3027">
  <defs>
    <style>
      .cls-1 {
        fill: none;
      }

      .cls-2 {
        clip-path: url(#clip-path);
      }

      .cls-3 {
        fill: #00843d;
      }
    </style>
    <clipPath id="clip-path">
      <rect class="cls-1" width="476.65042" height="543.3027"/>
    </clipPath>
  </defs>
  <title>turtlecoin_symbol</title>
  <g id="Layer_2" data-name="Layer 2">
    <g class="cls-2">
      <g>
        <path class="cls-3" d="M215.791,305.5947a11.9992,11.9992,0,0,1-10.3926-6l-22.0937-38.2676a12,12,0,0,1,0-12l22.0937-38.2675a11.9992,11.9992,0,0,1,10.3926-6h45.07032a11.9992,11.9992,0,0,1,10.3926,6l22.0937,38.2675a12,12,0,0,1,0,12l-22.0937,38.2676a11.9992,11.9992,0,0,1-10.3926,6Z"/>
        <g>
          <path class="cls-3" d="M155.59182,245.3291a11.99916,11.99916,0,0,0,10.39258-6l22.0937-38.2676a12,12,0,0,0,0-12l-27.5537-47.7246-53.7363,29.335a12.01055,12.01055,0,0,0-6.249,10.7988,337.21467,337.21467,0,0,0,7.46972,63.8584Z"/>
          <path class="cls-3" d="M321.06052,245.3291a11.99891,11.99891,0,0,1-10.3925-6l-22.0938-38.2676a12.00045,12.00045,0,0,1,0-12l27.5537-47.7246,53.7354,29.335a12.01354,12.01354,0,0,1,6.25,10.7988,337.38574,337.38574,0,0,1-7.4698,63.8584Z"/>
          <path class="cls-3" d="M244.07422,102.0029a12.00229,12.00229,0,0,0-11.5,0L178.081,131.751l27.3155,47.3115a11.99907,11.99907,0,0,0,10.3926,6h45.07032a11.999,11.999,0,0,0,10.3925-6l27.3155-47.3115Z"/>
          <path class="cls-3" d="M112.9687,265.3291a335.128,335.128,0,0,0,48.5879,102.2012l26.5205-45.9336a12,12,0,0,0,0-12l-22.0937-38.2676a11.99916,11.99916,0,0,0-10.39258-6Z"/>
          <path class="cls-3" d="M363.68162,265.3291a335.12726,335.12726,0,0,1-48.5888,102.2012l-26.5196-45.9336a12.00045,12.00045,0,0,1,0-12l22.0938-38.2676a11.99867,11.99867,0,0,1,10.3916-6Z"/>
          <path class="cls-3" d="M215.78909,325.5947a11.99883,11.99883,0,0,0-10.3917,6L174.625,384.8926a338.62847,338.62847,0,0,0,56.3457,55.3554,11.99874,11.99874,0,0,0,14.70122.0079,338.65769,338.65769,0,0,0,56.3535-55.3633l-30.7725-53.2979a11.99867,11.99867,0,0,0-10.3916-6Z"/>
        </g>
      </g>
    </g>
  </g>
</svg>
